<?xml version="1.0" encoding="UTF-8" standalone="no" ?>
<!DOCTYPE svg PUBLIC "-//W3C//DTD SVG 1.1//EN" "http://www.w3.org/Graphics/SVG/1.1/DTD/svg11.dtd">
<svg xmlns="http://www.w3.org/2000/svg" xmlns:xlink="http://www.w3.org/1999/xlink" version="1.1" width="1080" height="700" viewBox="0 -81.43 1080 700" xml:space="preserve">
<desc>Created with Fabric.js 5.2.4</desc>
<defs>
</defs>
<rect x="0" y="0" width="100%" height="100%" fill="transparent"></rect>
<g transform="matrix(1 0 0 1 540 350)" id="ee239287-993c-481a-bc23-c4b360b383b1"  >
<rect style="stroke: none; stroke-width: 1; stroke-dasharray: none; stroke-linecap: butt; stroke-dashoffset: 0; stroke-linejoin: miter; stroke-miterlimit: 4; fill: rgb(255,255,255); fill-rule: nonzero; opacity: 1; visibility: hidden;" vector-effect="non-scaling-stroke"  x="-540" y="-350" rx="0" ry="0" width="1080" height="700" />
</g>
<g transform="matrix(Infinity NaN NaN Infinity 0 0)" id="0aeeb5a3-4688-48a9-b59f-43ec65a87c4f"  >
</g>
<g transform="matrix(0.65 0 0 0.65 540 272.5)"  >
<g style="" vector-effect="non-scaling-stroke"   >
		<g transform="matrix(16.66 0 0 16.66 2.5 0)"  >
<path style="stroke: none; stroke-width: 1; stroke-dasharray: none; stroke-linecap: butt; stroke-dashoffset: 0; stroke-linejoin: miter; stroke-miterlimit: 4; fill: rgb(255,230,0); fill-rule: nonzero; opacity: 1;" vector-effect="non-scaling-stroke"  transform=" translate(-1414.1, -1427.5)" d="M 1459.8 1427.5 C 1459.8 1443.6 1439.3 1456.7 1414.1 1456.7 C 1388.8999999999999 1456.7 1368.3999999999999 1443.6000000000001 1368.3999999999999 1427.5 C 1368.3999999999999 1411.3999999999999 1388.8999999999999 1398.3 1414.1 1398.3 C 1439.3 1398.3 1459.8 1411.3999999999999 1459.8 1427.5 z" stroke-linecap="round" />
</g>
		<g transform="matrix(16.66 0 0 16.66 251.53 -136.6)"  >
<path style="stroke: none; stroke-width: 1; stroke-dasharray: none; stroke-linecap: butt; stroke-dashoffset: 0; stroke-linejoin: miter; stroke-miterlimit: 4; fill: rgb(255,255,255); fill-rule: nonzero; opacity: 1;" vector-effect="non-scaling-stroke"  transform=" translate(-1429.05, -1419.3)" d="M 1398.9 1418.3 C 1398.9 1418.3 1398.4 1418.8 1398.7 1419.2 C 1399.4 1420.1000000000001 1401.6000000000001 1420.6000000000001 1403.9 1420.1000000000001 C 1405.2 1419.8000000000002 1407 1418.4 1408.6000000000001 1417.1000000000001 C 1410.4 1415.7 1412.2 1414.2 1414.0000000000002 1413.7 C 1415.9000000000003 1413.1000000000001 1417.1000000000001 1413.4 1417.9000000000003 1413.6000000000001 C 1418.8000000000004 1413.9 1419.8000000000004 1414.5000000000002 1421.5000000000002 1415.7 C 1424.6000000000001 1418 1437.2000000000003 1429 1439.4000000000003 1430.9 C 1441.1000000000004 1430.1000000000001 1448.9000000000003 1426.8000000000002 1459.5000000000002 1424.4 C 1458.6000000000001 1418.8000000000002 1455.2000000000003 1413.6000000000001 1450.0000000000002 1409.4 C 1442.8000000000002 1412.4 1433.9000000000003 1414 1425.2000000000003 1409.8000000000002 C 1425.2000000000003 1409.8000000000002 1420.5000000000002 1407.6000000000001 1415.8000000000002 1407.7000000000003 C 1408.9 1407.9000000000003 1406.0000000000002 1410.8000000000002 1402.8000000000002 1414.0000000000002 z" stroke-linecap="round" />
</g>
		<g transform="matrix(16.66 0 0 16.66 -162.34 3.55)"  >
<path style="stroke: none; stroke-width: 1; stroke-dasharray: none; stroke-linecap: butt; stroke-dashoffset: 0; stroke-linejoin: miter; stroke-miterlimit: 4; fill: rgb(255,255,255); fill-rule: nonzero; opacity: 1;" vector-effect="non-scaling-stroke"  transform=" translate(-1404.2, -1427.71)" d="M 1438.9 1432.1 C 1438.8000000000002 1432 1424.1000000000001 1419.1999999999998 1420.8000000000002 1416.6999999999998 C 1418.9 1415.2999999999997 1417.8000000000002 1414.8999999999999 1416.7000000000003 1414.6999999999998 C 1416.1000000000004 1414.6 1415.3000000000002 1414.6999999999998 1414.7000000000003 1414.8999999999999 C 1413.2000000000003 1415.3 1411.1000000000004 1416.6999999999998 1409.3000000000002 1418.1 C 1407.4 1419.6 1405.7000000000003 1421 1404.1000000000001 1421.3 C 1402.0000000000002 1421.8 1399.5000000000002 1421.2 1398.4 1420.3999999999999 C 1397.9 1420.1 1397.6000000000001 1419.6999999999998 1397.4 1419.3 C 1397 1418.3 1397.8000000000002 1417.5 1397.9 1417.3999999999999 L 1401.9 1412.9999999999998 L 1403.3000000000002 1411.5999999999997 C 1402.0000000000002 1411.7999999999997 1400.8000000000002 1412.0999999999997 1399.6000000000001 1412.3999999999996 C 1398.1000000000001 1412.7999999999997 1396.7 1413.1999999999996 1395.3000000000002 1413.1999999999996 C 1394.7000000000003 1413.1999999999996 1391.5000000000002 1412.6999999999996 1390.9 1412.4999999999995 C 1387.2 1411.4999999999995 1384 1410.4999999999995 1379.2 1408.2999999999995 C 1373.5 1412.5999999999995 1369.6000000000001 1417.8999999999994 1368.5 1423.7999999999995 C 1369.3 1423.9999999999995 1370.7 1424.3999999999994 1371.2 1424.4999999999995 C 1384.2 1427.3999999999996 1388.2 1430.3999999999996 1389 1430.9999999999995 C 1389.8 1430.0999999999995 1390.9 1429.5999999999995 1392.2 1429.5999999999995 C 1393.6000000000001 1429.5999999999995 1394.9 1430.2999999999995 1395.7 1431.3999999999994 C 1396.4 1430.7999999999995 1397.5 1430.2999999999995 1398.8 1430.2999999999995 C 1399.3999999999999 1430.2999999999995 1400 1430.3999999999994 1400.7 1430.5999999999995 C 1402.2 1431.0999999999995 1402.9 1432.0999999999995 1403.3 1432.9999999999995 C 1403.8 1432.7999999999995 1404.3999999999999 1432.5999999999995 1405.1 1432.5999999999995 C 1405.8 1432.5999999999995 1406.5 1432.7999999999995 1407.3 1433.0999999999995 C 1409.7 1434.0999999999995 1410.1 1436.4999999999995 1409.8999999999999 1438.2999999999995 L 1410.3999999999999 1438.2999999999995 C 1413.3 1438.2999999999995 1415.6 1440.5999999999995 1415.6 1443.4999999999995 C 1415.6 1444.3999999999996 1415.3999999999999 1445.1999999999996 1415 1445.8999999999996 C 1415.8 1446.2999999999997 1417.7 1447.2999999999997 1419.5 1447.0999999999997 C 1420.9 1446.8999999999996 1421.4 1446.4999999999998 1421.6 1446.1999999999996 C 1421.6999999999998 1445.9999999999995 1421.8999999999999 1445.7999999999995 1421.6999999999998 1445.5999999999997 L 1417.9999999999998 1441.4999999999998 C 1417.9999999999998 1441.4999999999998 1417.3999999999999 1440.8999999999999 1417.5999999999997 1440.6999999999998 C 1417.7999999999995 1440.4999999999998 1418.1999999999996 1440.7999999999997 1418.4999999999998 1440.9999999999998 C 1420.3999999999999 1442.5999999999997 1422.5999999999997 1444.8999999999999 1422.5999999999997 1444.8999999999999 C 1422.5999999999997 1444.8999999999999 1422.7999999999997 1445.1999999999998 1423.5999999999997 1445.3999999999999 C 1424.2999999999997 1445.4999999999998 1425.5999999999997 1445.3999999999999 1426.4999999999998 1444.6999999999998 C 1426.6999999999998 1444.4999999999998 1426.9999999999998 1444.2999999999997 1427.0999999999997 1444.1 C 1427.9999999999998 1442.8999999999999 1426.9999999999998 1441.6999999999998 1426.9999999999998 1441.6999999999998 L 1422.6999999999998 1436.8999999999999 C 1422.6999999999998 1436.8999999999999 1422.1 1436.3 1422.2999999999997 1436.1 C 1422.4999999999995 1435.8999999999999 1422.8999999999996 1436.1999999999998 1423.1999999999998 1436.3999999999999 C 1424.6 1437.4999999999998 1426.4999999999998 1439.4999999999998 1428.2999999999997 1441.3 C 1428.6999999999998 1441.6 1430.2999999999997 1442.6 1432.3999999999996 1441.2 C 1433.6999999999996 1440.3 1433.9999999999995 1439.3 1433.8999999999996 1438.5 C 1433.7999999999997 1437.5 1432.9999999999995 1436.7 1432.9999999999995 1436.7 L 1427.1999999999996 1430.8 C 1427.1999999999996 1430.8 1426.5999999999997 1430.3 1426.7999999999995 1430 C 1426.9999999999995 1429.8 1427.3999999999994 1430.1 1427.6999999999996 1430.3 C 1429.5999999999997 1431.8999999999999 1434.5999999999997 1436.5 1434.5999999999997 1436.5 C 1434.6999999999996 1436.5 1436.3999999999996 1437.8 1438.5999999999997 1436.4 C 1439.3999999999996 1435.9 1439.8999999999996 1435.2 1439.8999999999996 1434.3000000000002 C 1439.9999999999995 1433.0000000000002 1438.8999999999996 1432.1000000000001 1438.8999999999996 1432.1000000000001 z" stroke-linecap="round" />
</g>
		<g transform="matrix(16.66 0 0 16.66 -200.7 196.54)"  >
<path style="stroke: none; stroke-width: 1; stroke-dasharray: none; stroke-linecap: butt; stroke-dashoffset: 0; stroke-linejoin: miter; stroke-miterlimit: 4; fill: rgb(255,255,255); fill-rule: nonzero; opacity: 1;" vector-effect="non-scaling-stroke"  transform=" translate(-1401.9, -1439.3)" d="M 1410.6 1439.6 C 1409.6999999999998 1439.6 1408.6999999999998 1440.1 1408.6 1440.1 C 1408.5 1440.1 1408.6 1439.6999999999998 1408.6999999999998 1439.5 C 1408.7999999999997 1439.3000000000002 1409.9999999999998 1435.7 1407.1 1434.4 C 1404.8999999999999 1433.4 1403.5 1434.5 1403.1 1435 C 1403 1435.1 1402.8999999999999 1435.1 1402.8999999999999 1435 C 1402.8999999999999 1434.4 1402.6 1432.6 1400.6 1432 C 1397.8 1431.1 1396.1 1433.1 1395.6 1433.8 C 1395.3999999999999 1432.2 1394.1 1431 1392.3999999999999 1431 C 1390.6 1431 1389.1999999999998 1432.4 1389.1999999999998 1434.2 C 1389.1999999999998 1436 1390.6 1437.4 1392.3999999999999 1437.4 C 1393.3 1437.4 1393.9999999999998 1437.1000000000001 1394.6 1436.5 L 1394.6 1436.6 C 1394.5 1437.3999999999999 1394.1999999999998 1440.3 1397.1999999999998 1441.3999999999999 C 1398.3999999999999 1441.8999999999999 1399.3999999999999 1441.4999999999998 1400.2999999999997 1440.8999999999999 C 1400.5999999999997 1440.6999999999998 1400.5999999999997 1440.8 1400.5999999999997 1440.9999999999998 C 1400.4999999999998 1441.6999999999998 1400.5999999999997 1443.2999999999997 1402.8999999999996 1444.1999999999998 C 1404.5999999999997 1444.8999999999999 1405.5999999999997 1444.1999999999998 1406.1999999999996 1443.6 C 1406.4999999999995 1443.3 1406.5999999999997 1443.3999999999999 1406.5999999999997 1443.8 C 1406.6999999999996 1445.8999999999999 1408.4999999999998 1447.6 1410.5999999999997 1447.6 C 1412.7999999999997 1447.6 1414.5999999999997 1445.8 1414.5999999999997 1443.6 C 1414.5999999999997 1441.3999999999999 1412.7999999999997 1439.6 1410.5999999999997 1439.6 z" stroke-linecap="round" />
</g>
		<g transform="matrix(16.66 0 0 16.66 -0.83 3.33)"  >
<path style="stroke: none; stroke-width: 1; stroke-dasharray: none; stroke-linecap: butt; stroke-dashoffset: 0; stroke-linejoin: miter; stroke-miterlimit: 4; fill: rgb(45,50,119); fill-rule: nonzero; opacity: 1;" vector-effect="non-scaling-stroke"  transform=" translate(-1413.9, -1427.7)" d="M 1439.5 1430.6 C 1435 1426.6999999999998 1424.6 1417.6 1421.7 1415.5 C 1420.1000000000001 1414.3 1419 1413.6 1418 1413.4 C 1417.6 1413.3000000000002 1417 1413.1000000000001 1416.2 1413.1000000000001 C 1415.5 1413.1000000000001 1414.7 1413.2 1413.9 1413.5000000000002 C 1412.1000000000001 1414.1000000000001 1410.3000000000002 1415.5000000000002 1408.5 1416.9000000000003 L 1408.4 1417.0000000000002 C 1406.8000000000002 1418.3000000000002 1405.1000000000001 1419.6000000000001 1403.8000000000002 1419.9000000000003 C 1403.2000000000003 1420.0000000000002 1402.7000000000003 1420.1000000000004 1402.1000000000001 1420.1000000000004 C 1400.7 1420.1000000000004 1399.4 1419.7000000000003 1398.9 1419.1000000000004 C 1398.8000000000002 1419.0000000000005 1398.9 1418.8000000000004 1399.1000000000001 1418.6000000000004 L 1403.1000000000001 1414.3000000000004 C 1406.2 1411.2000000000005 1409.1000000000001 1408.3000000000004 1415.9 1408.1000000000004 L 1416.2 1408.1000000000004 C 1420.4 1408.1000000000004 1424.6000000000001 1410.0000000000005 1425.1000000000001 1410.2000000000003 C 1429.1000000000001 1412.1000000000004 1433.1000000000001 1413.1000000000004 1437.2 1413.1000000000004 C 1441.5 1413.1000000000004 1445.9 1412.0000000000005 1450.5 1409.9000000000003 C 1450 1409.5000000000002 1449.4 1409.0000000000002 1448.9 1408.6000000000004 C 1444.8000000000002 1410.4000000000003 1441 1411.2000000000003 1437.2 1411.2000000000003 C 1433.4 1411.2000000000003 1429.6000000000001 1410.3000000000002 1425.9 1408.5000000000002 C 1425.7 1408.4000000000003 1421.1000000000001 1406.2000000000003 1416.2 1406.2000000000003 L 1415.8 1406.2000000000003 C 1410.1 1406.3000000000002 1406.8999999999999 1408.3000000000002 1404.8 1410.1000000000004 C 1402.7 1410.1000000000004 1400.8999999999999 1410.7000000000003 1399.3 1411.1000000000004 C 1397.8999999999999 1411.5000000000005 1396.6 1411.8000000000004 1395.3999999999999 1411.8000000000004 L 1393.8999999999999 1411.8000000000004 C 1392.4999999999998 1411.8000000000004 1385.4999999999998 1410.1000000000004 1379.9999999999998 1407.9000000000003 C 1379.3999999999999 1408.3000000000004 1378.8999999999999 1408.7000000000003 1378.2999999999997 1409.1000000000004 C 1384.0999999999997 1411.5000000000005 1391.1999999999998 1413.3000000000004 1393.3999999999996 1413.5000000000005 C 1393.9999999999995 1413.5000000000005 1394.6999999999996 1413.6000000000004 1395.3999999999996 1413.6000000000004 C 1396.8999999999996 1413.6000000000004 1398.2999999999997 1413.2000000000003 1399.7999999999997 1412.8000000000004 C 1400.6999999999998 1412.6000000000004 1401.5999999999997 1412.3000000000004 1402.4999999999998 1412.1000000000004 L 1401.6999999999998 1412.9000000000003 L 1397.6999999999998 1417.3000000000004 C 1397.3999999999999 1417.6000000000004 1396.6999999999998 1418.5000000000005 1397.1 1419.5000000000005 C 1397.3 1419.9000000000005 1397.6999999999998 1420.3000000000004 1398.1999999999998 1420.7000000000005 C 1399.1999999999998 1421.3000000000004 1400.8999999999999 1421.8000000000004 1402.4999999999998 1421.8000000000004 C 1403.0999999999997 1421.8000000000004 1403.6999999999998 1421.7000000000005 1404.1999999999998 1421.6000000000004 C 1405.8999999999999 1421.2000000000003 1407.6999999999998 1419.8000000000004 1409.4999999999998 1418.3000000000004 C 1410.9999999999998 1417.1000000000004 1413.0999999999997 1415.6000000000004 1414.6999999999998 1415.1000000000004 C 1415.1999999999998 1415.0000000000005 1415.6999999999998 1414.9000000000003 1416.1999999999998 1414.9000000000003 L 1416.6 1414.9000000000003 C 1417.6999999999998 1415.0000000000002 1418.6999999999998 1415.4000000000003 1420.6 1416.8000000000004 C 1423.8999999999999 1419.3000000000004 1438.6 1432.1000000000004 1438.6999999999998 1432.2000000000005 C 1438.6999999999998 1432.2000000000005 1439.6 1433.0000000000005 1439.6 1434.4000000000005 C 1439.6 1435.1000000000006 1439.1 1435.8000000000006 1438.3999999999999 1436.3000000000006 C 1437.8 1436.7000000000007 1437.1 1436.9000000000005 1436.4999999999998 1436.9000000000005 C 1435.4999999999998 1436.9000000000005 1434.7999999999997 1436.4000000000005 1434.7999999999997 1436.4000000000005 C 1434.7999999999997 1436.4000000000005 1429.6999999999998 1431.8000000000006 1427.8999999999996 1430.2000000000005 C 1427.5999999999997 1429.9000000000005 1427.2999999999997 1429.7000000000005 1426.9999999999995 1429.7000000000005 C 1426.7999999999995 1429.7000000000005 1426.6999999999996 1429.8000000000004 1426.5999999999995 1429.9000000000005 C 1426.2999999999995 1430.3000000000006 1426.5999999999995 1430.8000000000006 1426.9999999999995 1431.1000000000006 L 1432.8999999999996 1437.0000000000007 C 1432.8999999999996 1437.0000000000007 1433.5999999999997 1437.7000000000007 1433.6999999999996 1438.6000000000006 C 1433.6999999999996 1439.6000000000006 1433.2999999999995 1440.4000000000005 1432.2999999999995 1441.0000000000007 C 1431.5999999999995 1441.5000000000007 1430.8999999999994 1441.7000000000007 1430.1999999999996 1441.7000000000007 C 1429.2999999999995 1441.7000000000007 1428.6999999999996 1441.3000000000006 1428.4999999999995 1441.2000000000007 L 1427.5999999999995 1440.4000000000008 C 1426.0999999999995 1438.9000000000008 1424.4999999999995 1437.3000000000009 1423.2999999999995 1436.4000000000008 C 1422.9999999999995 1436.2000000000007 1422.6999999999996 1435.9000000000008 1422.3999999999994 1435.9000000000008 C 1422.2999999999995 1435.9000000000008 1422.0999999999995 1435.9000000000008 1421.9999999999993 1436.1000000000008 C 1421.8999999999994 1436.2000000000007 1421.7999999999993 1436.500000000001 1422.0999999999992 1437.000000000001 C 1422.1999999999991 1437.200000000001 1422.3999999999992 1437.3000000000009 1422.3999999999992 1437.3000000000009 L 1426.6999999999991 1442.1000000000008 C 1426.6999999999991 1442.1000000000008 1427.5999999999992 1443.2000000000007 1426.799999999999 1444.1000000000008 L 1426.599999999999 1444.3000000000009 L 1426.199999999999 1444.700000000001 C 1425.4999999999989 1445.3000000000009 1424.4999999999989 1445.400000000001 1424.099999999999 1445.400000000001 L 1423.499999999999 1445.400000000001 C 1423.099999999999 1445.300000000001 1422.799999999999 1445.200000000001 1422.599999999999 1445.000000000001 C 1422.399999999999 1444.700000000001 1420.199999999999 1442.6000000000008 1418.399999999999 1441.1000000000008 C 1418.199999999999 1440.9000000000008 1417.899999999999 1440.7000000000007 1417.599999999999 1440.7000000000007 C 1417.499999999999 1440.7000000000007 1417.299999999999 1440.8000000000006 1417.199999999999 1440.9000000000008 C 1416.899999999999 1441.3000000000009 1417.399999999999 1441.9000000000008 1417.599999999999 1442.1000000000008 L 1421.299999999999 1446.1000000000008 C 1421.299999999999 1446.1000000000008 1421.299999999999 1446.2000000000007 1421.1999999999991 1446.4000000000008 C 1421.0999999999992 1446.6000000000008 1420.5999999999992 1447.0000000000007 1419.299999999999 1447.2000000000007 L 1418.799999999999 1447.2000000000007 C 1417.399999999999 1447.2000000000007 1415.999999999999 1446.5000000000007 1415.1999999999991 1446.1000000000008 C 1415.499999999999 1445.4000000000008 1415.6999999999991 1444.6000000000008 1415.6999999999991 1443.8000000000009 C 1415.6999999999991 1440.8000000000009 1413.299999999999 1438.4000000000008 1410.299999999999 1438.4000000000008 L 1410.099999999999 1438.4000000000008 C 1410.199999999999 1437.0000000000007 1409.999999999999 1434.4000000000008 1407.299999999999 1433.3000000000009 C 1406.499999999999 1433.000000000001 1405.799999999999 1432.8000000000009 1404.999999999999 1432.8000000000009 C 1404.3999999999992 1432.8000000000009 1403.8999999999992 1432.9000000000008 1403.299999999999 1433.1000000000008 C 1402.6999999999991 1432.000000000001 1401.799999999999 1431.2000000000007 1400.599999999999 1430.8000000000009 C 1399.899999999999 1430.6000000000008 1399.299999999999 1430.500000000001 1398.599999999999 1430.500000000001 C 1397.499999999999 1430.500000000001 1396.499999999999 1430.8000000000009 1395.599999999999 1431.500000000001 C 1394.7200682089529 1430.4164994060368 1393.3957703726146 1429.791136538877 1391.999999999999 1429.8000000000009 C 1390.799999999999 1429.8000000000009 1389.599999999999 1430.3000000000009 1388.799999999999 1431.1000000000008 C 1387.6999999999991 1430.2000000000007 1383.1999999999991 1427.4000000000008 1371.099999999999 1424.6000000000008 C 1370.499999999999 1424.500000000001 1369.199999999999 1424.1000000000008 1368.399999999999 1423.8000000000009 C 1368.299999999999 1424.4000000000008 1368.199999999999 1425.1000000000008 1368.099999999999 1425.8000000000009 C 1368.099999999999 1425.8000000000009 1370.299999999999 1426.3000000000009 1370.799999999999 1426.4000000000008 C 1383.099999999999 1429.1000000000008 1387.1999999999991 1432.0000000000007 1387.899999999999 1432.5000000000007 C 1387.699999999999 1433.1000000000006 1387.599999999999 1433.7000000000007 1387.599999999999 1434.3000000000006 C 1387.599999999999 1436.9000000000005 1389.699999999999 1438.9000000000005 1392.199999999999 1438.9000000000005 C 1392.4999999999989 1438.9000000000005 1392.7999999999988 1438.9000000000005 1393.099999999999 1438.8000000000006 C 1393.499999999999 1440.7000000000007 1394.699999999999 1442.1000000000006 1396.599999999999 1442.8000000000006 C 1397.199999999999 1443.0000000000007 1397.699999999999 1443.1000000000006 1398.199999999999 1443.1000000000006 C 1398.4999999999989 1443.1000000000006 1398.899999999999 1443.1000000000006 1399.2999999999988 1443.0000000000007 C 1399.5999999999988 1443.9000000000008 1400.3999999999987 1445.0000000000007 1402.199999999999 1445.7000000000007 C 1402.7999999999988 1446.0000000000007 1403.399999999999 1446.1000000000008 1403.9999999999989 1446.1000000000008 C 1404.4999999999989 1446.1000000000008 1404.9999999999989 1446.000000000001 1405.399999999999 1445.8000000000009 C 1406.199999999999 1447.8000000000009 1408.199999999999 1449.200000000001 1410.399999999999 1449.200000000001 C 1411.899999999999 1449.200000000001 1413.299999999999 1448.600000000001 1414.299999999999 1447.500000000001 C 1415.1999999999991 1448.000000000001 1416.999999999999 1448.900000000001 1418.899999999999 1448.900000000001 L 1419.599999999999 1448.900000000001 C 1421.499999999999 1448.700000000001 1422.299999999999 1447.900000000001 1422.699999999999 1447.400000000001 C 1422.7999999999988 1447.300000000001 1422.7999999999988 1447.200000000001 1422.899999999999 1447.100000000001 C 1423.299999999999 1447.200000000001 1423.799999999999 1447.300000000001 1424.399999999999 1447.300000000001 C 1425.399999999999 1447.300000000001 1426.399999999999 1447.0000000000011 1427.399999999999 1446.2000000000012 C 1428.399999999999 1445.5000000000011 1429.099999999999 1444.5000000000011 1429.099999999999 1443.6000000000013 C 1429.399999999999 1443.7000000000012 1429.799999999999 1443.7000000000012 1430.099999999999 1443.7000000000012 C 1431.099999999999 1443.7000000000012 1432.199999999999 1443.4000000000012 1433.199999999999 1442.7000000000012 C 1435.099999999999 1441.5000000000011 1435.399999999999 1439.800000000001 1435.399999999999 1438.800000000001 C 1435.699999999999 1438.900000000001 1436.099999999999 1438.900000000001 1436.399999999999 1438.900000000001 C 1437.399999999999 1438.900000000001 1438.399999999999 1438.600000000001 1439.299999999999 1438.000000000001 C 1440.499999999999 1437.200000000001 1441.1999999999991 1436.1000000000008 1441.299999999999 1434.8000000000009 C 1441.399999999999 1433.9000000000008 1441.099999999999 1433.000000000001 1440.6999999999991 1432.200000000001 C 1443.8999999999992 1430.8000000000009 1451.0999999999992 1428.200000000001 1459.6999999999991 1426.200000000001 C 1459.6999999999991 1425.500000000001 1459.5999999999992 1424.900000000001 1459.3999999999992 1424.200000000001 C 1449.0999999999992 1426.400000000001 1441.3999999999992 1429.700000000001 1439.499999999999 1430.600000000001 z M 1410.6 1447.3 C 1408.6 1447.3 1407 1445.7 1406.8999999999999 1443.7 C 1406.8999999999999 1443.5 1406.8999999999999 1443.1000000000001 1406.4999999999998 1443.1000000000001 C 1406.2999999999997 1443.1000000000001 1406.1999999999998 1443.2 1405.9999999999998 1443.3000000000002 C 1405.5999999999997 1443.7000000000003 1404.9999999999998 1444.1000000000001 1404.1999999999998 1444.1000000000001 C 1403.7999999999997 1444.1000000000001 1403.3999999999999 1444.0000000000002 1402.9999999999998 1443.8000000000002 C 1400.8999999999999 1442.9 1400.7999999999997 1441.5000000000002 1400.8999999999999 1440.9 C 1400.8999999999999 1440.7 1400.8999999999999 1440.6000000000001 1400.8 1440.5 L 1400.7 1440.4 L 1400.6000000000001 1440.4 C 1400.5000000000002 1440.4 1400.4 1440.4 1400.2 1440.6000000000001 C 1399.6000000000001 1441.0000000000002 1399 1441.2 1398.4 1441.2 C 1398.1000000000001 1441.2 1397.7 1441.1000000000001 1397.4 1441 C 1394.6000000000001 1439.9 1394.8000000000002 1437.3 1395 1436.5 C 1395 1436.3 1395 1436.2 1394.9 1436.1 L 1394.7 1435.8999999999999 L 1394.5 1436.1 C 1393.9 1436.6 1393.2 1436.8999999999999 1392.5 1436.8999999999999 C 1390.9 1436.8999999999999 1389.6 1435.6 1389.6 1433.9999999999998 C 1389.6 1432.3999999999996 1390.8999999999999 1431.0999999999997 1392.5 1431.0999999999997 C 1393.9 1431.0999999999997 1395.2 1432.1999999999996 1395.4 1433.5999999999997 L 1395.5 1434.3999999999996 L 1395.9 1433.6999999999996 C 1395.9 1433.5999999999997 1397.1000000000001 1431.7999999999995 1399.3000000000002 1431.8999999999996 C 1399.7000000000003 1431.8999999999996 1400.1000000000001 1431.9999999999995 1400.6000000000001 1432.0999999999997 C 1402.3000000000002 1432.5999999999997 1402.6000000000001 1434.1999999999996 1402.6000000000001 1434.7999999999997 C 1402.6000000000001 1435.1999999999998 1402.9 1435.1999999999998 1402.9 1435.1999999999998 C 1403 1435.1999999999998 1403.2 1435.1 1403.2 1434.9999999999998 C 1403.5 1434.6999999999998 1404.2 1434.0999999999997 1405.3 1434.0999999999997 C 1405.8 1434.0999999999997 1406.3 1434.1999999999996 1406.8999999999999 1434.4999999999998 C 1409.6 1435.6999999999998 1408.3999999999999 1439.0999999999997 1408.3999999999999 1439.1999999999998 C 1408.1999999999998 1439.7999999999997 1408.1 1439.9999999999998 1408.3999999999999 1440.1999999999998 L 1408.6 1440.1999999999998 C 1408.6999999999998 1440.1999999999998 1408.8999999999999 1440.1999999999998 1409.1 1440.1 C 1409.5 1440 1410 1439.8 1410.5 1439.8 C 1412.5 1439.8 1414.2 1441.5 1414.2 1443.5 C 1414.3 1445.7 1412.6000000000001 1447.3 1410.6000000000001 1447.3 z" stroke-linecap="round" />
</g>
</g>
</g>
</svg>